<svg width="22" height="16" viewBox="0 0 22 16" fill="none" xmlns="http://www.w3.org/2000/svg">
<path fill-rule="evenodd" clip-rule="evenodd" d="M13.2178 1.37619L13.3703 1.20347C14.0312 0.542588 15.0711 0.49175 15.7903 1.05096L15.963 1.20347L21.463 6.70347L21.5389 6.78407L21.6401 6.90844L21.7714 7.11239L21.8694 7.31905L21.9343 7.51218L21.9873 7.78333L22 7.99984L21.9949 8.13777L21.9629 8.36783L21.9088 8.5721L21.8283 8.77574L21.7323 8.95447L21.5972 9.14649L21.463 9.2962L15.963 14.7962C15.2471 15.5122 14.0863 15.5122 13.3703 14.7962C12.7094 14.1353 12.6586 13.0954 13.2178 12.3762L13.3703 12.2035L15.7392 9.83317H1.83333C0.820811 9.83317 0 9.01236 0 7.99984C0 6.98731 0.820811 6.1665 1.83333 6.1665H15.7392L13.3703 3.7962C12.7094 3.13531 12.6586 2.09539 13.2178 1.37619L13.3703 1.20347L13.2178 1.37619Z" fill="white"/>
</svg>
