<svg width="213" height="14" viewBox="0 0 213 14" fill="none" xmlns="http://www.w3.org/2000/svg">
<g opacity="0.6">
<path d="M207.789 6.98305C208.274 6.9936 208.763 6.96161 209.246 6.99967C209.736 7.09104 209.854 7.83249 209.419 8.07532C209.122 8.23529 208.769 8.1349 208.448 8.16312H207.789V6.98305ZM209.527 5.64737C209.635 6.02815 209.268 6.37004 208.901 6.3176H207.789C207.797 5.95851 207.774 5.56876 207.8 5.22858C208.246 5.24112 208.695 5.20298 209.138 5.24852C209.329 5.29635 209.488 5.45283 209.527 5.64737ZM212.204 0.000514794C212.225 0.727709 212.207 1.49334 212.213 2.23528C212.212 5.25176 212.216 8.26816 212.211 11.2848C212.191 12.4153 211.189 13.3976 210.067 13.4202C208.943 13.4248 207.819 13.4209 206.695 13.4221V8.86185C207.919 8.85553 209.145 8.87469 210.369 8.85229C210.937 8.81664 211.559 8.44197 211.585 7.81707C211.652 7.18948 211.06 6.75539 210.498 6.68683C210.282 6.68122 210.289 6.62388 210.498 6.59886C211.034 6.48306 211.455 5.92851 211.297 5.37313C211.163 4.789 210.517 4.56292 209.98 4.56404C208.885 4.5566 207.79 4.563 206.695 4.56084C206.702 3.70949 206.68 2.85723 206.707 2.0065C206.794 0.896408 207.821 -0.0190562 208.928 0.000805495C210.02 0.000639289 211.112 0.000639403 212.204 0.000597851V0.000514794Z" fill="url(#paint0_linear)"/>
<path d="M194.321 2.12168C194.349 0.992973 195.355 0.0187135 196.476 0.0022175C197.596 -0.00123128 198.716 0.00171907 199.835 0.000721831C199.832 3.77714 199.842 7.55397 199.831 11.3302C199.788 12.4452 198.793 13.4009 197.684 13.4206C196.562 13.4247 195.44 13.4212 194.318 13.4223V8.70827C195.408 8.96568 196.55 9.07526 197.662 8.90452C198.326 8.79761 199.053 8.4713 199.278 7.78196C199.444 7.1923 199.351 6.57173 199.375 5.96653V4.56105H197.452C197.443 5.4906 197.469 6.42177 197.438 7.3502C197.386 7.92087 196.821 8.28345 196.283 8.26409C195.615 8.27115 194.292 7.78034 194.292 7.78034C194.289 6.03875 194.312 3.85766 194.321 2.12185V2.12168Z" fill="url(#paint1_linear)"/>
<path d="M200.548 5.12768C200.446 5.14916 200.527 4.78276 200.501 4.64377C200.508 3.76495 200.487 2.88518 200.513 2.00699C200.6 0.892198 201.635 -0.0255513 202.746 0.000543062H206.019C206.016 3.77696 206.025 7.55379 206.014 11.33C205.971 12.445 204.976 13.4006 203.867 13.4204C202.745 13.4247 201.623 13.4211 200.501 13.4222V8.2573C201.268 8.88593 202.309 8.98379 203.263 8.98549C203.983 8.98524 204.698 8.8743 205.397 8.70834V7.76213C204.61 8.15463 203.684 8.40394 202.811 8.17844C202.202 8.02686 201.76 7.43832 201.77 6.80985C201.699 6.15629 202.082 5.46628 202.725 5.27199C203.522 5.02234 204.391 5.21327 205.139 5.53783C205.299 5.62168 205.461 5.72569 205.397 5.45801V4.71428C204.147 4.41685 202.817 4.30741 201.561 4.63097C201.197 4.73352 200.843 4.88905 200.548 5.12776V5.12768Z" fill="url(#paint2_linear)"/>
<path fill-rule="evenodd" clip-rule="evenodd" d="M50.2555 12.4134C49.1092 13.4024 47.6224 13.9994 45.9977 13.9994C42.3719 13.9994 39.4326 11.026 39.4326 7.35809C39.4326 3.69021 42.3719 0.716797 45.9977 0.716797C47.6224 0.716797 49.1092 1.3138 50.2555 2.30278C51.4018 1.3138 52.8887 0.716797 54.5133 0.716797C58.1391 0.716797 61.0784 3.69021 61.0784 7.35809C61.0784 11.026 58.1391 13.9994 54.5133 13.9994C52.8887 13.9994 51.4018 13.4024 50.2555 12.4134Z" fill="#ED0006"/>
<path fill-rule="evenodd" clip-rule="evenodd" d="M50.2539 12.4121C51.6646 11.194 52.5591 9.38194 52.5591 7.35858C52.5591 5.33522 51.6646 3.5232 50.2539 2.30507C51.4005 1.31501 52.8882 0.717285 54.5138 0.717285C58.1396 0.717285 61.0789 3.69069 61.0789 7.35858C61.0789 11.0265 58.1396 13.9999 54.5138 13.9999C52.8882 13.9999 51.4005 13.4021 50.2539 12.4121Z" fill="#F9A000"/>
<path fill-rule="evenodd" clip-rule="evenodd" d="M50.2515 12.4134C51.6635 11.1952 52.5589 9.38236 52.5589 7.35794C52.5589 5.33364 51.6636 3.52087 50.2517 2.30273C48.8397 3.52088 47.9443 5.33374 47.9443 7.35816C47.9443 9.38246 48.8396 11.1952 50.2515 12.4134Z" fill="#FF5E00"/>
<path fill-rule="evenodd" clip-rule="evenodd" d="M160.81 3.06263C162.721 3.06263 163.772 3.91306 163.772 5.51943C163.868 6.74783 163.008 7.78725 161.861 7.97623L164.441 11.4724H162.435L160.237 8.07072H160.046V11.4724H158.422V3.06263H160.81ZM160.047 6.93662H160.525C161.576 6.93662 162.053 6.46416 162.053 5.61373C162.053 4.85779 161.576 4.38533 160.525 4.38533H160.047V6.93662ZM152.784 11.473H157.371V10.0556H154.409V7.78783H157.275V6.37045H154.409V4.4806H157.371V3.06322H152.784V11.473ZM148.01 8.73276L145.812 3.06322H144.092L147.628 11.662H148.487L152.023 3.06322H150.303L148.01 8.73276ZM128.608 7.31443C128.608 9.67674 130.519 11.6611 132.908 11.6611C133.673 11.6611 134.341 11.4721 135.01 11.1886V9.29877C134.532 9.86572 133.864 10.2437 133.099 10.2437C131.57 10.2437 130.328 9.10978 130.328 7.59791V7.40892C130.233 5.89704 131.475 4.57415 133.004 4.47966C133.768 4.47966 134.532 4.85763 135.01 5.42458V3.53474C134.437 3.15677 133.673 3.06227 133.004 3.06227C130.519 2.87329 128.608 4.85763 128.608 7.31443ZM125.649 6.27586C124.694 5.89789 124.407 5.7089 124.407 5.23644C124.503 4.66949 124.981 4.19703 125.554 4.29152C126.032 4.29152 126.509 4.575 126.892 4.95296L127.752 3.81906C127.083 3.2521 126.223 2.87413 125.363 2.87413C124.025 2.77964 122.879 3.81906 122.783 5.14195V5.23644C122.783 6.37035 123.261 7.0318 124.79 7.50426C125.172 7.59875 125.554 7.78773 125.936 7.97672C126.223 8.1657 126.414 8.44918 126.414 8.82715C126.414 9.4886 125.841 10.0556 125.267 10.0556H125.172C124.407 10.0556 123.738 9.58309 123.452 8.92164L122.401 9.96106C122.974 11.0005 124.121 11.5674 125.267 11.5674C126.796 11.6619 128.038 10.528 128.134 9.01614V8.73266C128.038 7.59875 127.56 7.0318 125.649 6.27586ZM120.109 11.473H121.733V3.06322H120.109V11.473ZM112.558 3.06368H114.946H115.424C117.717 3.15818 119.533 5.04802 119.437 7.31584C119.437 8.54424 118.864 9.67815 117.908 10.5286C117.048 11.19 115.997 11.568 114.946 11.4735H112.558V3.06368ZM114.661 10.0562C115.425 10.1507 116.285 9.86725 116.858 9.39479C117.432 8.82783 117.718 8.0719 117.718 7.22146C117.718 6.46553 117.432 5.70959 116.858 5.14263C116.285 4.67017 115.425 4.38669 114.661 4.48119H114.183V10.0562H114.661Z" fill="black"/>
<path fill-rule="evenodd" clip-rule="evenodd" d="M139.89 2.86816C137.502 2.86816 135.495 4.75801 135.495 7.21481C135.495 9.57712 137.406 11.5615 139.89 11.656C142.375 11.7504 144.286 9.76611 144.381 7.3093C144.286 4.8525 142.375 2.86816 139.89 2.86816V2.86816Z" fill="#FD6020"/>
<path d="M72.4999 3.50391L68.7461 11.2786H72.6968L73.3543 9.71542H74.8572L75.5147 11.2786H81.3525V10.0855L81.8727 11.2786H84.8925L85.4127 10.0603V11.2786H97.5538L99.0301 9.75602L100.412 11.2786L104.619 11.2912L100.851 7.0804L104.619 3.50391H100.509L99.072 4.99834L97.7332 3.50391H84.5253L83.3912 6.03441L82.2304 3.50391H76.9378V4.65637L76.3491 3.50391H72.4999Z" fill="white"/>
<path fill-rule="evenodd" clip-rule="evenodd" d="M71.8209 2.15137L67.3906 11.9554H72.6943L73.3518 10.3922H74.8547L75.5121 11.9554H81.35V10.7623L81.8702 11.9554H84.8899L85.4101 10.7371V11.9554H97.5512L99.0275 10.4328L100.41 11.9554L106.646 11.968L102.201 7.08074L106.646 2.15137H100.507L99.0695 3.6458L97.7306 2.15137H84.5227L83.3886 4.68187L82.2278 2.15137H76.9352V3.30383L76.3465 2.15137H71.8209ZM72.8461 3.54345H75.4313L78.3699 10.1916V3.54345H81.2019L83.4717 8.31014L85.5635 3.54345H88.3814V10.5785H86.6667L86.6527 5.06587L84.153 10.5785H82.6192L80.1054 5.06587V10.5785H76.5781L75.9094 9.00131H72.2965L71.6292 10.5771H69.7393L72.8461 3.54345ZM96.9251 3.54346H89.9531V10.5743H96.8172L99.0295 8.24419L101.162 10.5743H103.391L100.151 7.07927L103.391 3.54346H101.259L99.0575 5.84685L96.9251 3.54346ZM74.1044 4.73389L72.9141 7.54347H75.2933L74.1044 4.73389ZM91.6758 6.28401V4.99977V4.99854H96.0261L97.9243 7.05237L95.942 9.11742H91.6758V7.7154H95.4793V6.28401H91.6758Z" fill="#1F72CD"/>
<path d="M180.774 13.8338C184.521 13.8518 187.94 10.75 187.94 6.97675C187.94 2.85076 184.521 -0.0015395 180.774 6.23393e-07H177.549C173.758 -0.0015395 170.637 2.85153 170.637 6.97675C170.637 10.7508 173.758 13.8518 177.549 13.8338H180.774Z" fill="#0079BE"/>
<path d="M177.558 0.571777C174.094 0.572932 171.286 3.40675 171.285 6.90437C171.286 10.4016 174.094 13.2354 177.558 13.2366C181.024 13.2354 183.832 10.4016 183.833 6.90437C183.832 3.40675 181.024 0.572932 177.558 0.571777ZM173.582 6.90437C173.582 6.09569 173.825 5.3056 174.28 4.63736C174.736 3.96912 175.382 3.45382 176.135 3.1588V10.6496C175.382 10.3547 174.735 9.83954 174.28 9.17133C173.825 8.50313 173.581 7.71303 173.582 6.90437ZM178.982 10.6511V3.15841C179.735 3.45301 180.382 3.96827 180.838 4.63674C181.294 5.3052 181.537 6.09571 181.536 6.90476C181.537 7.71377 181.293 8.5042 180.838 9.17264C180.382 9.84107 179.735 10.3564 178.982 10.6511Z" fill="white"/>
<path d="M180.774 13.8338C184.521 13.8518 187.94 10.75 187.94 6.97675C187.94 2.85076 184.521 -0.0015395 180.774 6.23393e-07H177.549C173.758 -0.0015395 170.637 2.85153 170.637 6.97675C170.637 10.7508 173.758 13.8518 177.549 13.8338H180.774Z" fill="#0079BE"/>
<path d="M177.558 0.571777C174.094 0.572932 171.286 3.40675 171.285 6.90437C171.286 10.4016 174.094 13.2354 177.558 13.2366C181.024 13.2354 183.832 10.4016 183.833 6.90437C183.832 3.40675 181.024 0.572932 177.558 0.571777ZM173.582 6.90437C173.582 6.09569 173.825 5.3056 174.28 4.63736C174.736 3.96912 175.382 3.45382 176.135 3.1588V10.6496C175.382 10.3547 174.735 9.83954 174.28 9.17133C173.825 8.50313 173.581 7.71303 173.582 6.90437ZM178.982 10.6511V3.15841C179.735 3.45301 180.382 3.96827 180.838 4.63674C181.294 5.3052 181.537 6.09571 181.536 6.90476C181.537 7.71377 181.293 8.5042 180.838 9.17264C180.382 9.84107 179.735 10.3564 178.982 10.6511Z" fill="white"/>
<path fill-rule="evenodd" clip-rule="evenodd" d="M8.28677 12.6485H5.41822L3.26716 4.44208C3.16506 4.06459 2.94827 3.73086 2.62939 3.57357C1.83358 3.17829 0.95665 2.86371 0 2.70505V2.38911H4.62101C5.25878 2.38911 5.73711 2.86371 5.81683 3.41491L6.93292 9.33449L9.80007 2.38911H12.5889L8.28677 12.6485ZM14.1818 12.6476H11.4727L13.7034 2.38818H16.4126L14.1818 12.6476ZM19.9166 5.22966C19.9963 4.67709 20.4746 4.36115 21.0327 4.36115C21.9096 4.28182 22.8648 4.44047 23.6621 4.83438L24.1404 2.62548C23.3432 2.30954 22.4662 2.15088 21.6704 2.15088C19.041 2.15088 17.1277 3.57196 17.1277 5.54424C17.1277 7.04465 18.483 7.83247 19.4396 8.30707C20.4746 8.78031 20.8732 9.09626 20.7935 9.5695C20.7935 10.2794 19.9963 10.5953 19.2005 10.5953C18.2438 10.5953 17.2872 10.3587 16.4116 9.9634L15.9333 12.1737C16.89 12.5676 17.9249 12.7262 18.8816 12.7262C21.8299 12.8042 23.6621 11.3845 23.6621 9.25355C23.6621 6.57004 19.9166 6.41275 19.9166 5.22966ZM33.146 12.6475L30.9949 2.38809H28.6844C28.2061 2.38809 27.7277 2.70404 27.5683 3.17728L23.5851 12.6475H26.3739L26.9305 11.1485H30.3571L30.676 12.6475H33.146ZM29.0836 5.15031L29.8794 9.01691H27.6486L29.0836 5.15031Z" fill="#172B85"/>
</g>
<defs>
<linearGradient id="paint0_linear" x1="206.657" y1="6.42436" x2="212.178" y2="6.42436" gradientUnits="userSpaceOnUse">
<stop stop-color="#58B03A"/>
<stop offset="1" stop-color="#55B330"/>
</linearGradient>
<linearGradient id="paint1_linear" x1="194.201" y1="6.84004" x2="199.745" y2="6.84004" gradientUnits="userSpaceOnUse">
<stop stop-color="#0F6EB6"/>
<stop offset="1" stop-color="#006DBA"/>
</linearGradient>
<linearGradient id="paint2_linear" x1="200.493" y1="6.5544" x2="206.018" y2="6.5544" gradientUnits="userSpaceOnUse">
<stop stop-color="#DE0D3D"/>
<stop offset="1" stop-color="#E30138"/>
</linearGradient>
</defs>
</svg>
