<svg width="12" height="16" viewBox="0 0 12 16" fill="none" xmlns="http://www.w3.org/2000/svg">
<path fill-rule="evenodd" clip-rule="evenodd" d="M5.98674 7.1517C6.51939 6.52504 7.49071 5.20907 7.49071 3.67376C7.49071 2.13846 6.51939 0.791152 5.98674 0.164497C5.79874 -0.0548323 5.48541 -0.0548323 5.29742 0.164497C4.76476 0.791152 3.79344 2.10713 3.79344 3.64243C3.79344 5.17773 4.76476 6.52504 5.29742 7.12036C5.48541 7.33969 5.79874 7.33969 5.98674 7.1517ZM4.80842 10.7982C5.09702 10.8109 5.31667 10.6131 5.29855 10.33C5.28052 9.50593 5.05931 7.8905 3.99766 6.74142C2.94145 5.6232 1.33154 5.33438 0.491175 5.25984C0.202582 5.2471 -0.0170669 5.44491 0.00104422 5.72806C0.01908 6.5521 0.240292 8.16753 1.30194 9.31661C2.36359 10.4657 3.99892 10.7182 4.80842 10.7982ZM5.95426 10.3613C6.00316 9.5427 6.19895 7.89097 7.25516 6.77275C8.31681 5.62367 9.95758 5.3403 10.7616 5.29118C11.0194 5.27299 11.2699 5.47624 11.2518 5.75939C11.2029 6.57799 11.0071 8.22972 9.95088 9.34794C8.89467 10.4662 7.2539 10.7495 6.4444 10.8295C6.18666 10.8477 5.93615 10.6445 5.95426 10.3613ZM4.80842 15.9994C5.09702 16.0122 5.31667 15.8144 5.29855 15.5312C5.28052 14.7072 5.05931 13.0917 3.99766 11.9427C2.94145 10.8244 1.33154 10.5356 0.491175 10.4611C0.202582 10.4483 -0.0170669 10.6461 0.00104422 10.9293C0.01908 11.7533 0.240292 13.3688 1.30194 14.5178C2.36359 15.6669 3.99892 15.9194 4.80842 15.9994ZM7.2553 11.9113C8.3115 10.7931 9.95228 10.5097 10.7618 10.4298C11.0504 10.417 11.2646 10.6457 11.2519 10.898C11.203 11.7166 11.0072 13.3683 9.95101 14.4865C8.89481 15.6047 7.25404 15.8881 6.44453 15.9681C6.1868 15.9863 5.93629 15.783 5.9544 15.4999C6.00329 14.6813 6.19909 13.0296 7.2553 11.9113Z" fill="#A4B6C0"/>
</svg>
