<svg width="17" height="17" viewBox="0 0 17 17" fill="none" xmlns="http://www.w3.org/2000/svg">
<path fill-rule="evenodd" clip-rule="evenodd" d="M11.5046 8.50027L16.3769 3.62779C17.2077 2.79694 17.2077 1.45399 16.3769 0.623137C15.5461 -0.207712 14.2031 -0.207712 13.3723 0.623137L8.5 5.49561L3.62768 0.623137C2.79686 -0.207712 1.45394 -0.207712 0.623117 0.623137C-0.207706 1.45399 -0.207706 2.79694 0.623117 3.62779L5.49544 8.50027L0.623117 13.3727C-0.207706 14.2036 -0.207706 15.5465 0.623117 16.3774C1.03747 16.7918 1.58143 17 2.1254 17C2.66936 17 3.21333 16.7918 3.62768 16.3774L8.5 11.5049L13.3723 16.3774C13.7867 16.7918 14.3306 17 14.8746 17C15.4186 17 15.9625 16.7918 16.3769 16.3774C17.2077 15.5465 17.2077 14.2036 16.3769 13.3727L11.5046 8.50027Z" fill="white"/>
</svg>
