<svg width="23" height="22" viewBox="0 0 23 22" fill="none" xmlns="http://www.w3.org/2000/svg">
<path fill-rule="evenodd" clip-rule="evenodd" d="M0.506598 4.15184L8.575 0.130779C9.15745 -0.231689 9.9178 0.200168 9.9178 0.923838V2.13164H15.9196C16.4101 2.13164 16.8073 2.54512 16.8073 3.05492V6.90267C16.8073 8.11713 15.0319 8.11713 15.0319 6.90267V3.97821H9.9178V17.9294H15.0319V15.005C15.0319 13.7908 16.8073 13.7908 16.8073 15.005V18.8527C16.8073 19.3628 16.4101 19.776 15.9196 19.776H9.9178L9.91445 20.9841C9.91506 21.6517 9.24031 22.108 8.64872 21.8136L0.580318 17.7926C0.241571 17.6623 0 17.3233 0 16.9263L0.00365555 4.98165C0.00396018 4.63851 0.189479 4.30962 0.506598 4.15184ZM12.6098 9.78404C11.1324 9.78404 11.1324 12.1208 12.6098 12.1208H19.1657L17.8933 13.4439C16.849 14.53 18.4371 16.1821 19.4816 15.0959L22.6647 11.7849C23.0936 11.3388 23.1296 10.6034 22.6647 10.1199L19.4816 6.80888C18.4371 5.72274 16.849 7.37476 17.8933 8.4609L19.1657 9.78404H12.6098Z" fill="#3C3C3C"/>
</svg>
