<svg width="32" height="32" viewBox="0 0 32 32" fill="none" xmlns="http://www.w3.org/2000/svg">
<path fill-rule="evenodd" clip-rule="evenodd" d="M9.58579 24.5858C8.80474 25.3668 8.80474 26.6332 9.58579 27.4142C10.3668 28.1953 11.6332 28.1953 12.4142 27.4142L22.4142 17.4142C23.1953 16.6332 23.1953 15.3668 22.4142 14.5858L12.4142 4.58579C11.6332 3.80474 10.3668 3.80474 9.58579 4.58579C8.80474 5.36684 8.80474 6.63317 9.58579 7.41421L18.1716 16L9.58579 24.5858Z" fill="#1A1A1A"/>
<mask id="mask0" mask-type="alpha" maskUnits="userSpaceOnUse" x="9" y="4" width="14" height="24">
<path fill-rule="evenodd" clip-rule="evenodd" d="M9.58579 24.5858C8.80474 25.3668 8.80474 26.6332 9.58579 27.4142C10.3668 28.1953 11.6332 28.1953 12.4142 27.4142L22.4142 17.4142C23.1953 16.6332 23.1953 15.3668 22.4142 14.5858L12.4142 4.58579C11.6332 3.80474 10.3668 3.80474 9.58579 4.58579C8.80474 5.36684 8.80474 6.63317 9.58579 7.41421L18.1716 16L9.58579 24.5858Z" fill="white"/>
</mask>
<g mask="url(#mask0)">
<rect width="32" height="32" transform="matrix(0 1 1 0 0 0)" fill="#3C3C3C"/>
</g>
</svg>
