<svg width="24" height="24" viewBox="0 0 24 24" fill="none" xmlns="http://www.w3.org/2000/svg">
<path fill-rule="evenodd" clip-rule="evenodd" d="M7.18934 18.4393C6.60355 19.0251 6.60355 19.9749 7.18934 20.5607C7.77513 21.1464 8.72487 21.1464 9.31066 20.5607L16.8107 13.0607C17.3964 12.4749 17.3964 11.5251 16.8107 10.9393L9.31066 3.43934C8.72487 2.85355 7.77513 2.85355 7.18934 3.43934C6.60355 4.02513 6.60355 4.97487 7.18934 5.56066L13.6287 12L7.18934 18.4393Z" fill="#1A1A1A"/>
<mask id="mask0" mask-type="alpha" maskUnits="userSpaceOnUse" x="6" y="3" width="12" height="18">
<path fill-rule="evenodd" clip-rule="evenodd" d="M7.18934 18.4393C6.60355 19.0251 6.60355 19.9749 7.18934 20.5607C7.77513 21.1464 8.72487 21.1464 9.31066 20.5607L16.8107 13.0607C17.3964 12.4749 17.3964 11.5251 16.8107 10.9393L9.31066 3.43934C8.72487 2.85355 7.77513 2.85355 7.18934 3.43934C6.60355 4.02513 6.60355 4.97487 7.18934 5.56066L13.6287 12L7.18934 18.4393Z" fill="white"/>
</mask>
<g mask="url(#mask0)">
<rect width="24" height="24" transform="matrix(0 1 1 0 0 0)" fill="white"/>
</g>
</svg>
