<svg width="70" height="72" viewBox="0 0 70 72" fill="none" xmlns="http://www.w3.org/2000/svg">
<path fill-rule="evenodd" clip-rule="evenodd" d="M53.7748 66.0191C48.0823 66.0191 43.4507 61.3875 43.4507 55.6938C43.4507 54.5982 43.6245 53.5446 43.9421 52.5521C45.6215 53.2653 47.4075 53.8322 49.3002 54.2362C49.5087 54.2817 49.7161 54.3021 49.9199 54.3021C51.2816 54.3021 52.5054 53.354 52.8015 51.9695C53.1431 50.3765 52.1278 48.8086 50.5348 48.467C49.4416 48.2333 48.4024 47.936 47.4099 47.5812C49.1659 46.2003 51.3727 45.3696 53.7748 45.3696C59.4673 45.3696 64.1002 50.0013 64.1002 55.6938C64.1002 61.3875 59.4673 66.0191 53.7748 66.0191M59.5896 30.614C57.6189 29.5424 55.5488 28.6386 53.5123 27.7504C46.5265 24.7022 39.8858 21.8062 36.5655 12.7347C48.3904 13.9789 57.0256 20.7813 59.5896 30.614M25.0055 50.2542C26.4583 52.5976 26.9114 55.3677 26.2821 58.0528C25.6516 60.7378 24.0142 63.0165 21.6696 64.4692C20.0335 65.4845 18.1563 66.0203 16.2433 66.0203C12.6365 66.0203 9.35212 64.1947 7.45463 61.1345C6.00184 58.7899 5.54874 56.021 6.17804 53.336C6.80854 50.651 8.44593 48.3723 10.7905 46.9183C11.7387 46.331 12.7683 45.909 13.8375 45.6537C14.0509 47.363 14.4561 49.1586 15.0902 51.0597C15.5013 52.2968 16.652 53.0795 17.8878 53.0795C18.1971 53.0795 18.5112 53.0303 18.8204 52.9273C20.3655 52.4118 21.2022 50.7421 20.6867 49.1958C20.3199 48.093 20.0514 47.0418 19.8668 46.0289C21.9681 46.8152 23.7781 48.274 25.0055 50.2542M53.7748 39.4698C49.1012 39.4698 44.8855 41.4584 41.9212 44.6313C39.7839 42.9951 38.0267 40.9238 36.6746 38.4174C34.0663 33.5831 33.0666 27.1523 33.6336 20.1173C38.2616 27.5262 45.2367 30.5769 51.1521 33.1576C55.0346 34.8513 58.7013 36.4515 61.2401 38.9903C61.8047 39.5549 62.5587 39.8546 63.3258 39.8546H63.3546C64.9764 39.845 66.2877 38.5276 66.2877 36.9034C66.2877 36.8099 66.2829 36.7176 66.2745 36.6253C66.1355 20.4745 53.951 8.4674 36.6686 6.82762C36.9862 5.79437 37.2811 4.72995 37.5424 3.62358C37.5508 3.59241 37.5484 3.56245 37.5556 3.53248C37.5772 3.427 37.5868 3.32271 37.5964 3.21843C37.606 3.12733 37.6155 3.03623 37.6155 2.94633C37.6155 2.84684 37.606 2.74975 37.5952 2.65146C37.5868 2.55676 37.5784 2.46327 37.5604 2.37217C37.5412 2.27867 37.5137 2.18997 37.4861 2.10007C37.4585 2.00897 37.4333 1.91787 37.3974 1.82917C37.3614 1.74167 37.3171 1.66016 37.2727 1.57625C37.2284 1.49354 37.1876 1.41083 37.1361 1.33292C37.0833 1.25261 37.0222 1.17829 36.9623 1.10397C36.9035 1.03086 36.8472 0.957737 36.7825 0.890611C36.7165 0.823486 36.6434 0.763552 36.5703 0.701222C36.496 0.637692 36.4217 0.575361 36.3414 0.519024C36.2658 0.467481 36.1843 0.424329 36.104 0.37878C36.0129 0.328435 35.9218 0.278091 35.8247 0.236138C35.7948 0.224151 35.7708 0.206171 35.7408 0.194184C35.6761 0.169012 35.609 0.159423 35.543 0.139046C35.4783 0.118668 35.4196 0.0899002 35.3525 0.0731188C35.3213 0.0659268 35.2913 0.0671255 35.2614 0.0611321C35.1559 0.0395561 35.0528 0.0299667 34.9473 0.0191787C34.8562 0.010788 34.7651 0 34.674 0C34.5757 0 34.4798 0.010788 34.3815 0.0203774C34.2868 0.0299667 34.1921 0.0383574 34.0998 0.0563375C34.0076 0.0743175 33.92 0.101887 33.8313 0.129456C33.7391 0.157026 33.6468 0.183396 33.5581 0.219357C33.4717 0.255317 33.3902 0.299667 33.3063 0.342819C33.2236 0.38717 33.1397 0.429124 33.0606 0.480666C32.9803 0.533408 32.9072 0.593341 32.8329 0.653275C32.7597 0.71201 32.6866 0.768347 32.6195 0.834274C32.5512 0.900201 32.4924 0.97332 32.4301 1.04524C32.3666 1.12076 32.3042 1.19387 32.2479 1.27538C32.1964 1.3509 32.1532 1.43121 32.1077 1.51272C32.0573 1.60382 32.007 1.69492 31.965 1.79201C31.953 1.82198 31.9339 1.84595 31.9231 1.87592C30.9701 4.3284 30.1862 6.78207 29.5437 9.21777C27.4137 14.3505 24.6028 18.5722 21.8542 22.6884C18.2427 28.0992 14.7641 33.3182 13.8747 39.6412C11.6895 39.9624 9.58107 40.7272 7.68118 41.9043C3.99766 44.1878 1.42412 47.7694 0.435219 51.9875C-0.554882 56.2068 0.157127 60.5592 2.44059 64.2427C5.42048 69.0506 10.5808 71.9202 16.2433 71.9202C19.2555 71.9202 22.2078 71.0775 24.779 69.4833C28.4625 67.201 31.0361 63.6194 32.0262 59.4001C33.0163 55.1807 32.303 50.8284 30.0196 47.1461C27.6858 43.3798 24.0118 40.8111 19.8105 39.8713C20.634 35.145 23.4053 30.9928 26.7616 25.9644C27.0277 25.564 27.2974 25.1613 27.5683 24.7537C27.687 30.9293 28.9803 36.581 31.482 41.2186C33.3111 44.6085 35.7576 47.4254 38.7375 49.6117C37.974 51.4912 37.5508 53.5434 37.5508 55.6938C37.5508 64.6406 44.8279 71.919 53.7748 71.919C62.7217 71.919 70 64.6406 70 55.6938C70 46.7481 62.7217 39.4698 53.7748 39.4698" fill="#293F94"/>
</svg>
