<svg width="17" height="17" viewBox="0 0 17 17" fill="none" xmlns="http://www.w3.org/2000/svg">
<path fill-rule="evenodd" clip-rule="evenodd" d="M11.5046 8.19899L16.3769 3.49921C17.2077 2.69781 17.2077 1.40245 16.3769 0.601051C15.5461 -0.20035 14.2031 -0.20035 13.3723 0.601051L8.5 5.30083L3.62768 0.601051C2.79686 -0.20035 1.45394 -0.20035 0.623117 0.601051C-0.207706 1.40245 -0.207706 2.69781 0.623117 3.49921L5.49544 8.19899L0.623117 12.8988C-0.207706 13.7002 -0.207706 14.9955 0.623117 15.7969C1.03747 16.1966 1.58143 16.3975 2.1254 16.3975C2.66936 16.3975 3.21333 16.1966 3.62768 15.7969L8.5 11.0972L13.3723 15.7969C13.7867 16.1966 14.3306 16.3975 14.8746 16.3975C15.4186 16.3975 15.9625 16.1966 16.3769 15.7969C17.2077 14.9955 17.2077 13.7002 16.3769 12.8988L11.5046 8.19899Z" fill="#3C3C3C"/>
</svg>
