<svg width="39" height="27" viewBox="0 0 39 27" fill="none" xmlns="http://www.w3.org/2000/svg">
<path fill-rule="evenodd" clip-rule="evenodd" d="M38.0012 14.1089C38.0015 13.9246 37.9405 13.7455 37.8277 13.5999L35.4315 10.5289L32.771 4.94165C32.3659 4.09643 31.7313 3.38261 30.94 2.88194C30.1487 2.38127 29.2327 2.114 28.2968 2.11075H23.4508V0.827747C23.4508 0.608215 23.3637 0.397674 23.2088 0.242442C23.0538 0.0872089 22.8436 0 22.6245 0H4.95909C4.73996 0 4.52979 0.0872089 4.37484 0.242442C4.21989 0.397674 4.13283 0.608215 4.13283 0.827747C4.13283 1.04728 4.21989 1.25782 4.37484 1.41305C4.52979 1.56828 4.73996 1.65549 4.95909 1.65549H21.7982V10.918C21.7982 11.1375 21.8853 11.3481 22.0402 11.5033C22.1952 11.6585 22.4054 11.7457 22.6245 11.7457H34.2954L36.3611 14.3904V21.4552H33.18C32.992 20.3912 32.436 19.4275 31.6095 18.7332C30.7831 18.0389 29.7389 17.6584 28.6603 17.6584C27.5817 17.6584 26.5376 18.0389 25.7111 18.7332C24.8846 19.4275 24.3286 20.3912 24.1407 21.4552H15.9442C15.7562 20.3912 15.2002 19.4275 14.3738 18.7332C13.5473 18.0389 12.5032 17.6584 11.4246 17.6584C10.346 17.6584 9.30183 18.0389 8.47536 18.7332C7.64889 19.4275 7.0929 20.3912 6.90493 21.4552H5.3755L5.3755 16.7614C5.3755 16.3042 5.00557 15.9336 4.54924 15.9336C4.09291 15.9336 3.72298 16.3042 3.72298 16.7614L3.72298 22.1417C3.72298 22.159 3.72351 22.1762 3.72456 22.1933C3.72134 22.2229 3.7197 22.2529 3.7197 22.2829C3.7197 22.5025 3.80676 22.713 3.96171 22.8682C4.11666 23.0235 4.32683 23.1107 4.54596 23.1107H6.91319C7.11046 24.166 7.6698 25.119 8.49441 25.8047C9.31902 26.4905 10.357 26.8658 11.4287 26.8658C12.5004 26.8658 13.5384 26.4905 14.363 25.8047C15.1876 25.119 15.7469 24.166 15.9442 23.1107H24.1324C24.3297 24.166 24.889 25.119 25.7136 25.8047C26.5382 26.4905 27.5762 26.8658 28.6479 26.8658C29.7196 26.8658 30.7576 26.4905 31.5822 25.8047C32.4068 25.119 32.9662 24.166 33.1634 23.1107H36.3487C36.7869 23.1107 37.2073 22.9363 37.5172 22.6258C37.8271 22.3153 38.0012 21.8943 38.0012 21.4552V14.1089ZM23.4508 3.76211H28.3092C28.9335 3.76231 29.5451 3.93969 30.0729 4.27369C30.6008 4.6077 31.0235 5.08467 31.292 5.64937L33.4113 10.1026H23.4508V3.76211ZM11.4246 25.2132C10.8416 25.214 10.2716 25.0415 9.78652 24.7176C9.30148 24.3936 8.9233 23.9328 8.69984 23.3934C8.47638 22.854 8.4177 22.2604 8.53122 21.6876C8.64475 21.1148 8.92538 20.5886 9.33758 20.1756C9.74978 19.7627 10.275 19.4816 10.8468 19.3678C11.4186 19.2541 12.0112 19.3129 12.5496 19.5367C13.088 19.7606 13.548 20.1395 13.8713 20.6254C14.1947 21.1113 14.3669 21.6824 14.366 22.2664C14.365 23.0476 14.0547 23.7965 13.5033 24.3489C12.9519 24.9013 12.2044 25.2121 11.4246 25.2132ZM28.6479 25.2132C28.0652 25.2132 27.4955 25.04 27.011 24.7156C26.5265 24.3911 26.149 23.93 25.9261 23.3906C25.7033 22.8511 25.6452 22.2576 25.7592 21.685C25.8732 21.1125 26.1542 20.5867 26.5665 20.1742C26.9789 19.7616 27.5041 19.4809 28.0758 19.3675C28.6475 19.2541 29.2399 19.3132 29.778 19.5371C30.3162 19.7611 30.776 20.14 31.0991 20.6258C31.4223 21.1116 31.5944 21.6826 31.5935 22.2664C31.5924 23.0483 31.2816 23.7978 30.7293 24.3503C30.177 24.9028 29.4284 25.2132 28.6479 25.2132ZM8.26085 13.0115C8.26085 12.792 8.1738 12.5815 8.01885 12.4262C7.86389 12.271 7.65373 12.1838 7.43459 12.1838H2.89017C2.67103 12.1838 2.46087 12.271 2.30592 12.4262C2.15096 12.5815 2.06391 12.792 2.06391 13.0115C2.06391 13.2311 2.15096 13.4416 2.30592 13.5968C2.46087 13.7521 2.67103 13.8393 2.89017 13.8393H7.43459C7.65373 13.8393 7.86389 13.7521 8.01885 13.5968C8.1738 13.4416 8.26085 13.2311 8.26085 13.0115ZM10.3282 9.70173H0.826259C0.607122 9.70173 0.396959 9.61452 0.242006 9.45929C0.0870522 9.30406 0 9.09352 0 8.87399C0 8.65446 0.0870522 8.44392 0.242006 8.28868C0.396959 8.13345 0.607122 8.04624 0.826259 8.04624H10.3282C10.5474 8.04624 10.7575 8.13345 10.9125 8.28868C11.0674 8.44392 11.1545 8.65446 11.1545 8.87399C11.1545 9.09352 11.0674 9.30406 10.9125 9.45929C10.7575 9.61452 10.5474 9.70173 10.3282 9.70173ZM2.89569 4.73353C2.89569 4.95307 2.98275 5.16361 3.1377 5.31884C3.29265 5.47407 3.50282 5.56128 3.72195 5.56128H13.2239C13.4431 5.56128 13.6532 5.47407 13.8082 5.31884C13.9631 5.16361 14.0502 4.95307 14.0502 4.73353C14.0502 4.514 13.9631 4.30346 13.8082 4.14823C13.6532 3.993 13.4431 3.90579 13.2239 3.90579H3.72195C3.50282 3.90579 3.29265 3.993 3.1377 4.14823C2.98275 4.30346 2.89569 4.514 2.89569 4.73353Z" fill="#293F94"/>
</svg>
