<svg width="40" height="40" viewBox="0 0 40 40" fill="none" xmlns="http://www.w3.org/2000/svg">
<path fill-rule="evenodd" clip-rule="evenodd" d="M34.1462 6H5.85384C3.72542 6 2 7.72542 2 9.85384C2 10.8305 2.49321 11.7411 3.3112 12.2747L15.0828 19.9536C15.379 20.1469 15.6837 20.3209 15.9954 20.4759L18.3301 22.0412C19.3408 22.7188 20.6606 22.7188 21.6713 22.0412L24.01 20.4732C24.3198 20.3189 24.6227 20.1458 24.9172 19.9536L36.6888 12.2747C37.5068 11.7411 38 10.8305 38 9.85384C38 7.72542 36.2746 6 34.1462 6ZM2.04283 30.0002V19.6861C2.04283 18.0864 3.8278 17.1341 5.15656 18.0249L16.1026 25.3636C18.4609 26.9446 21.5405 26.9446 23.8988 25.3636L34.8549 18.0181C36.1837 17.1273 37.9687 18.0796 37.9687 19.6794V30.0002C37.9687 32.2093 36.1778 34.0002 33.9687 34.0002H6.04283C3.83369 34.0002 2.04283 32.2093 2.04283 30.0002Z" fill="#293F94"/>
</svg>
