<svg width="14" height="23" viewBox="0 0 14 23" fill="none" xmlns="http://www.w3.org/2000/svg">
<path d="M11.73 0H2.07C0.927187 0 0 0.927187 0 2.07V20.01C0 21.1528 0.927187 22.08 2.07 22.08H11.73C12.8728 22.08 13.8 21.1528 13.8 20.01V2.07C13.8 0.927187 12.8728 0 11.73 0ZM6.9 20.7C6.13669 20.7 5.52 20.0833 5.52 19.32C5.52 18.5567 6.13669 17.94 6.9 17.94C7.66331 17.94 8.28 18.5567 8.28 19.32C8.28 20.0833 7.66331 20.7 6.9 20.7ZM11.73 16.0425C11.73 16.3271 11.4971 16.56 11.2125 16.56H2.5875C2.30287 16.56 2.07 16.3271 2.07 16.0425V2.5875C2.07 2.30287 2.30287 2.07 2.5875 2.07H11.2125C11.4971 2.07 11.73 2.30287 11.73 2.5875V16.0425Z" fill="white"/>
</svg>
