<svg width="34" height="34" viewBox="0 0 34 34" fill="none" xmlns="http://www.w3.org/2000/svg">
<path d="M32.3333 3.62501H17L16.3333 1.45834C16.3058 1.37517 16.2621 1.29825 16.2048 1.23196C16.1475 1.16568 16.0777 1.11133 15.9993 1.07202C15.8412 0.992627 15.658 0.979316 15.49 1.03501C15.322 1.09071 15.1831 1.21085 15.1037 1.369C15.0243 1.52716 15.011 1.71037 15.0667 1.87834L18.4 11.8783C18.4323 11.9734 18.4856 12.06 18.556 12.1315C18.6265 12.2031 18.7121 12.2578 18.8067 12.2917C22.2467 13.5183 27.7 16.2383 27.7 18.2917C27.7 19.065 27.3933 19.2717 27.2867 19.3383C26.56 19.8183 24.86 19.3917 23.9533 19.0117C23.826 18.9579 23.6851 18.9451 23.5501 18.975C23.4151 19.0048 23.2928 19.0759 23.2 19.1783C23.1068 19.2806 23.0477 19.4094 23.031 19.5468C23.0143 19.6842 23.0407 19.8233 23.1067 19.945C24.9 23.2183 26.66 27.2317 26.44 27.945C26.225 28.2464 25.9505 28.5006 25.6333 28.6917C25.6237 28.6496 25.6079 28.6092 25.5867 28.5717L24.2533 26.5717C24.1509 26.4355 24.0002 26.3437 23.8322 26.3152C23.6642 26.2866 23.4916 26.3235 23.35 26.4182C23.2083 26.5129 23.1083 26.6583 23.0705 26.8245C23.0327 26.9906 23.0599 27.165 23.1467 27.3117L24.48 29.3117C24.498 29.3377 24.518 29.3622 24.54 29.385C24.24 29.5583 23.92 29.7317 23.58 29.8983L22.2467 27.8983C22.1442 27.7621 21.9935 27.6704 21.8255 27.6418C21.6575 27.6133 21.485 27.6502 21.3433 27.7449C21.2017 27.8396 21.1016 27.985 21.0638 28.1511C21.026 28.3173 21.0533 28.4916 21.14 28.6383L22.3333 30.4917C21.82 30.725 21.3 30.9317 20.7933 31.1117L19.5533 29.2517C19.4509 29.1155 19.3002 29.0237 19.1322 28.9952C18.9642 28.9666 18.7916 29.0035 18.65 29.0982C18.5083 29.1929 18.4083 29.3383 18.3705 29.5045C18.3327 29.6706 18.3599 29.845 18.4467 29.9917L19.46 31.5183C18.9494 31.6804 18.4069 31.7148 17.88 31.6183C16.2667 31.0783 9.66667 18.765 9.66667 16.2917C9.70091 15.9979 9.80703 15.7171 9.97563 15.474C10.1442 15.231 10.3701 15.0333 10.6333 14.8983C10.7855 14.8221 10.9027 14.6905 10.9609 14.5306C11.0192 14.3707 11.0141 14.1946 10.9467 14.0383L5.61333 1.41168C5.57977 1.33059 5.53052 1.25692 5.46841 1.19491C5.40631 1.1329 5.33257 1.08376 5.25143 1.05031C5.17029 1.01686 5.08334 0.999768 4.99558 1C4.90781 1.00024 4.82096 1.0178 4.74 1.05168C4.57742 1.12074 4.4489 1.2515 4.38265 1.41524C4.3164 1.57899 4.31785 1.76233 4.38667 1.92501L5.1 3.62501H1.66667C1.48986 3.62501 1.32029 3.69525 1.19526 3.82027C1.07024 3.9453 1 4.11487 1 4.29168L1 28.2917C1 28.4685 1.07024 28.6381 1.19526 28.7631C1.32029 28.8881 1.48986 28.9583 1.66667 28.9583H14.1133C15.4467 31.0517 16.6867 32.625 17.4467 32.8783C17.7185 32.9629 18.0021 33.0034 18.2867 32.9983C20.92 32.9983 25.9133 30.485 27.2933 28.9583H32.3333C32.5101 28.9583 32.6797 28.8881 32.8047 28.7631C32.9298 28.6381 33 28.4685 33 28.2917V4.29168C33 4.11487 32.9298 3.9453 32.8047 3.82027C32.6797 3.69525 32.5101 3.62501 32.3333 3.62501ZM2.33333 27.625V4.95834H5.66667L9.50667 14.0517C9.15393 14.3115 8.86496 14.6483 8.66167 15.0364C8.45838 15.4245 8.3461 15.8537 8.33333 16.2917C8.33333 18.005 10.8133 23.4317 13.2933 27.625H2.33333ZM17.4667 4.95834H19.3333V10.5317L17.4667 4.95834ZM31.6667 27.625H27.7067C27.5667 25.9583 26.22 23.045 25.04 20.7317C26.0314 21.0188 27.0951 20.9163 28.0133 20.445C28.3515 20.2019 28.6204 19.8748 28.7935 19.496C28.9665 19.1172 29.0377 18.6998 29 18.285C29 15.3517 23.44 12.705 20.6667 11.5717V4.95834H31.6667V27.625Z" fill="#A4B6C0" stroke="#A4B6C0" stroke-width="0.319401"/>
</svg>
