<svg width="14" height="14" viewBox="0 0 14 14" fill="none" xmlns="http://www.w3.org/2000/svg">
<path fill-rule="evenodd" clip-rule="evenodd" d="M6.66667 0C5.74619 0 5 0.746192 5 1.66667V5H1.66667C0.746192 5 0 5.74619 0 6.66667C0 7.58714 0.746192 8.33333 1.66667 8.33333H5V11.6667C5 12.5871 5.74619 13.3333 6.66667 13.3333C7.58714 13.3333 8.33333 12.5871 8.33333 11.6667V8.33333H11.6667C12.5871 8.33333 13.3333 7.58714 13.3333 6.66667C13.3333 5.74619 12.5871 5 11.6667 5H8.33333V1.66667C8.33333 0.746192 7.58714 0 6.66667 0Z" fill="white"/>
</svg>
