<svg width="24" height="26" viewBox="0 0 24 26" fill="none" xmlns="http://www.w3.org/2000/svg">
<path d="M5.76808 23.0547H18.1476C21.1522 23.0547 23.0842 19.8658 21.693 17.2026L15.4164 5.18723C13.9106 2.30481 9.77731 2.32842 8.30463 5.22786L2.20174 17.2433C0.850163 19.9043 2.7835 23.0547 5.76808 23.0547Z" fill="#FFCE20"/>
<path d="M11.625 16.3789C11.3777 16.3789 11.1648 16.3012 10.9863 16.1456C10.8214 15.99 10.7184 15.7632 10.6772 15.4651L9.7706 9.43311C9.75687 9.3683 9.75 9.27756 9.75 9.1609C9.75 8.68128 9.92857 8.29888 10.2857 8.01371C10.6429 7.72853 11.0893 7.58594 11.625 7.58594C12.1607 7.58594 12.6071 7.72853 12.9643 8.01371C13.3214 8.29888 13.5 8.68776 13.5 9.18034C13.5 9.29701 13.4931 9.38774 13.4794 9.45256L12.5522 15.4651C12.5247 15.7632 12.4217 15.99 12.2431 16.1456C12.0783 16.3012 11.8723 16.3789 11.625 16.3789ZM11.625 20.7344C11.1168 20.7344 10.6978 20.5788 10.3681 20.2677C10.0385 19.9437 9.87363 19.5418 9.87363 19.0622C9.87363 18.5826 10.0385 18.1872 10.3681 17.8761C10.6978 17.552 11.1168 17.39 11.625 17.39C12.1332 17.39 12.5522 17.552 12.8819 17.8761C13.2115 18.1872 13.3764 18.5826 13.3764 19.0622C13.3764 19.5418 13.2115 19.9437 12.8819 20.2677C12.5522 20.5788 12.1332 20.7344 11.625 20.7344Z" fill="#3C3C3C"/>
</svg>
